<svg width="100" height="105" viewBox="0 0 100 105" fill="none" xmlns="http://www.w3.org/2000/svg">
<path d="M46.2697 105.002C27.5604 105.002 11.0902 95.4322 1.48154 80.9618C-1.22779 76.8816 -0.117041 71.3776 3.96308 68.6682C8.04329 65.9588 13.5473 67.0704 16.2567 71.1505C22.7184 80.8817 33.7508 87.2657 46.2697 87.2657C66.1485 87.2655 82.2635 71.1504 82.2637 51.2717C82.2637 46.3738 86.234 42.4027 91.1319 42.4027C96.0297 42.4027 100 46.3738 100 51.2717C99.9998 80.9462 75.9442 105.002 46.2697 105.002Z" fill="#FDBE51"/>
<path d="M20.775 10.5299C25.5059 9.26235 30.3686 12.0699 31.6362 16.8009L40.2578 48.9765C41.5253 53.7075 38.7178 58.5701 33.9868 59.8378C29.2559 61.1054 24.3932 58.2978 23.1256 53.5668L14.5041 21.3912C13.2365 16.6602 16.044 11.7976 20.775 10.5299Z" fill="#FDBE51"/>
<path d="M49.9908 0.304355C54.7218 -0.963237 59.5844 1.84434 60.8521 6.57528L69.4736 38.7509C70.7411 43.4819 67.9336 48.3445 63.2027 49.6122C58.4717 50.8798 53.6091 48.0722 52.3414 43.3413L43.7199 11.1656C42.4523 6.43466 45.2599 1.57201 49.9908 0.304355Z" fill="#FDBE51"/>
</svg>
